<?xml version="1.0" encoding="UTF-8" standalone="no"?>
<!DOCTYPE svg PUBLIC "-//W3C//DTD SVG 1.1//EN" "http://www.w3.org/Graphics/SVG/1.1/DTD/svg11.dtd">
<svg width="100%" height="100%" viewBox="0 0 2300 1778" version="1.1" xmlns="http://www.w3.org/2000/svg" xmlns:xlink="http://www.w3.org/1999/xlink" xml:space="preserve" xmlns:serif="http://www.serif.com/" style="fill-rule:evenodd;clip-rule:evenodd;stroke-linecap:square;stroke-linejoin:round;stroke-miterlimit:10;">
    <g transform="matrix(4.166667,0,0,4.166667,0,-2.145833)">
        <path d="M335.941,213.614L369.748,213.614" style="fill:none;fill-rule:nonzero;stroke:black;stroke-width:3px;"/>
    </g>
    <g transform="matrix(4.166667,0,0,4.166667,0,-2.145833)">
        <path d="M178.173,213.614L211.98,213.614" style="fill:none;fill-rule:nonzero;stroke:black;stroke-width:3px;"/>
    </g>
    <g transform="matrix(0,-4.166667,-4.166667,0,1707.422917,2353.45625)">
        <path d="M258.159,135.833L289.739,135.833" style="fill:none;fill-rule:nonzero;stroke:black;stroke-width:3px;"/>
    </g>
    <g transform="matrix(0,-4.166667,-4.166667,0,2362.864583,3012.939583)">
        <path d="M415.951,135.347L447.53,135.347" style="fill:none;fill-rule:nonzero;stroke:black;stroke-width:3px;"/>
    </g>
    <g transform="matrix(0,-4.166667,-4.166667,0,1049.95625,1695.989583)">
        <path d="M100.367,135.833L131.947,135.833" style="fill:none;fill-rule:nonzero;stroke:black;stroke-width:3px;"/>
    </g>
    <g transform="matrix(0,-4.166667,-4.166667,0,2356.902083,1703.977083)">
        <path d="M258.159,291.708L289.738,291.708" style="fill:none;fill-rule:nonzero;stroke:black;stroke-width:3px;"/>
    </g>
    <g transform="matrix(0,-4.166667,-4.166667,0,3014.364583,2361.439583)">
        <path d="M415.95,291.707L447.529,291.707" style="fill:none;fill-rule:nonzero;stroke:black;stroke-width:3px;"/>
    </g>
    <g transform="matrix(0,-4.166667,-4.166667,0,1699.435417,1046.510417)">
        <path d="M100.367,291.707L131.946,291.707" style="fill:none;fill-rule:nonzero;stroke:black;stroke-width:3px;"/>
    </g>
    <g transform="matrix(0,-4.166667,-4.166667,0,1707.422917,2353.45625)">
        <path d="M258.159,135.833L289.739,135.833" style="fill:none;fill-rule:nonzero;stroke:black;stroke-width:3px;"/>
    </g>
    <g transform="matrix(-4.166667,0,0,4.166667,968.1725,-2.145833)">
        <ellipse cx="116.181" cy="213.614" rx="61.992" ry="61.992"/>
    </g>
    <g transform="matrix(4.166667,0,0,4.166667,0,-1.429167)">
        <path d="M119.207,247.368C113.191,247.368 107.661,246.35 102.616,244.313C97.571,242.277 93.639,239.472 90.819,235.9C90.318,235.274 90.067,234.616 90.067,233.926C90.067,233.049 90.537,232.203 91.477,231.388C91.978,231.012 92.511,230.824 93.075,230.824C94.203,230.824 95.206,231.357 96.083,232.422C98.652,235.242 101.895,237.42 105.812,238.955C109.729,240.491 114.194,241.258 119.207,241.258C124.722,241.258 128.983,240.24 131.991,238.203C134.999,236.167 136.503,233.268 136.503,229.508C136.503,226.25 135.046,223.618 132.132,221.612C129.218,219.607 124.283,217.821 117.327,216.254C108.24,214.249 101.707,211.727 97.728,208.687C93.749,205.648 91.759,201.622 91.759,196.608C91.759,191.407 93.968,187.287 98.386,184.247C102.804,181.208 108.773,179.688 116.293,179.688C121.996,179.688 127.15,180.691 131.756,182.696C136.362,184.702 139.636,187.396 141.579,190.78C141.955,191.407 142.143,192.002 142.143,192.566C142.143,193.569 141.61,194.446 140.545,195.198C140.106,195.449 139.605,195.574 139.041,195.574C137.662,195.574 136.597,195.042 135.845,193.976C134.028,191.344 131.458,189.323 128.137,187.913C124.816,186.503 120.868,185.798 116.293,185.798C104.7,185.798 98.903,189.402 98.903,196.608C98.903,198.802 99.498,200.635 100.689,202.107C101.88,203.58 103.807,204.896 106.47,206.055C109.133,207.215 112.846,208.358 117.609,209.486C126.884,211.68 133.558,214.327 137.631,217.429C141.704,220.531 143.741,224.558 143.741,229.508C143.741,235.023 141.532,239.378 137.114,242.574C132.696,245.77 126.727,247.368 119.207,247.368Z" style="fill:white;fill-rule:nonzero;"/>
    </g>
    <g transform="matrix(-4.166667,0,0,4.166667,2282.904167,-2.145833)">
        <ellipse cx="273.948" cy="213.614" rx="61.992" ry="61.992"/>
    </g>
    <g transform="matrix(4.166667,0,0,4.166667,0,-1.429167)">
        <path d="M276.975,247.368C270.959,247.368 265.428,246.35 260.384,244.313C255.339,242.277 251.407,239.472 248.587,235.9C248.085,235.274 247.835,234.616 247.835,233.926C247.835,233.049 248.305,232.203 249.245,231.388C249.746,231.012 250.279,230.824 250.843,230.824C251.971,230.824 252.973,231.357 253.851,232.422C256.42,235.242 259.663,237.42 263.58,238.955C267.496,240.491 271.961,241.258 276.975,241.258C282.489,241.258 286.751,240.24 289.759,238.203C292.767,236.167 294.271,233.268 294.271,229.508C294.271,226.25 292.814,223.618 289.9,221.612C286.986,219.607 282.051,217.821 275.095,216.254C266.008,214.249 259.475,211.727 255.496,208.687C251.516,205.648 249.527,201.622 249.527,196.608C249.527,191.407 251.736,187.287 256.154,184.247C260.572,181.208 266.541,179.688 274.061,179.688C279.763,179.688 284.918,180.691 289.524,182.696C294.13,184.702 297.404,187.396 299.347,190.78C299.723,191.407 299.911,192.002 299.911,192.566C299.911,193.569 299.378,194.446 298.313,195.198C297.874,195.449 297.373,195.574 296.809,195.574C295.43,195.574 294.365,195.042 293.613,193.976C291.795,191.344 289.226,189.323 285.905,187.913C282.583,186.503 278.635,185.798 274.061,185.798C262.467,185.798 256.671,189.402 256.671,196.608C256.671,198.802 257.266,200.635 258.457,202.107C259.647,203.58 261.574,204.896 264.238,206.055C266.901,207.215 270.614,208.358 275.377,209.486C284.651,211.68 291.325,214.327 295.399,217.429C299.472,220.531 301.509,224.558 301.509,229.508C301.509,235.023 299.3,239.378 294.882,242.574C290.464,245.77 284.495,247.368 276.975,247.368Z" style="fill:white;fill-rule:nonzero;"/>
    </g>
    <g transform="matrix(-4.166667,0,0,4.166667,3597.8375,-2.145833)">
        <ellipse cx="431.74" cy="213.614" rx="61.992" ry="61.992"/>
    </g>
    <g transform="matrix(4.166667,0,0,4.166667,0,-1.429167)">
        <path d="M454.3,247.274C452.608,247.274 451.48,246.334 450.916,244.454C448.911,236.934 445.872,230.621 441.798,225.513C437.725,220.406 432.085,215.784 424.878,211.648L413.034,221.33L413.034,243.608C413.034,244.799 412.721,245.723 412.094,246.381C411.468,247.039 410.59,247.368 409.462,247.368C408.397,247.368 407.551,247.039 406.924,246.381C406.298,245.723 405.984,244.799 405.984,243.608L405.984,183.448C405.984,182.258 406.298,181.333 406.924,180.675C407.551,180.017 408.397,179.688 409.462,179.688C410.59,179.688 411.468,180.017 412.094,180.675C412.721,181.333 413.034,182.258 413.034,183.448L413.034,213.246L450.54,180.91C451.23,180.346 451.919,180.064 452.608,180.064C453.486,180.064 454.269,180.409 454.958,181.098C455.585,181.725 455.898,182.477 455.898,183.354C455.898,184.169 455.522,184.921 454.77,185.61L429.672,207.512C437.819,212.338 444.164,217.664 448.707,223.492C453.251,229.32 456.149,235.932 457.402,243.326L457.496,244.078C457.496,245.081 457.199,245.864 456.603,246.428C456.008,246.992 455.24,247.274 454.3,247.274Z" style="fill:white;fill-rule:nonzero;"/>
    </g>
    <g transform="matrix(0,-4.166667,-4.166667,0,1610.98125,2449.764583)">
        <path d="M268.514,112.702L279.351,112.702" style="fill:none;fill-rule:nonzero;stroke:rgb(8,6,5);stroke-width:3px;stroke-linejoin:miter;stroke-miterlimit:4;"/>
    </g>
    <g transform="matrix(4.166667,0,0,4.166667,0,825.7125)">
        <path d="M269.121,114.271L278.746,114.271" style="fill:none;fill-rule:nonzero;stroke:rgb(8,6,5);stroke-width:3px;stroke-linecap:round;stroke-linejoin:miter;stroke-miterlimit:4;"/>
    </g>
    <g transform="matrix(4.166667,0,0,4.166667,0,994.140417)">
        <path d="M273.933,106.572C273.933,106.572 282.595,92.135 279.708,86.36C279.708,86.36 277.783,81.547 273.933,81.547C270.083,81.547 268.158,86.36 268.158,86.36C265.271,92.135 273.933,106.572 273.933,106.572" style="fill:white;stroke:rgb(8,6,5);stroke-width:3px;stroke-linecap:butt;stroke-linejoin:miter;stroke-miterlimit:4;"/>
    </g>
    <g transform="matrix(4.166667,0,0,4.166667,0,1126.480417)">
        <path d="M252.759,97.91C263.346,104.647 282.595,104.647 293.183,97.91L293.183,84.435C293.183,84.435 310.507,75.773 304.732,64.223C297.033,51.711 278.746,57.486 273.933,71.923L273.933,78.66L273.933,71.923C267.196,57.486 248.909,51.711 243.134,64.223C237.359,75.773 252.759,83.473 252.759,83.473L252.759,97.91Z" style="fill:white;stroke:rgb(8,6,5);stroke-width:3px;stroke-linecap:round;stroke-miterlimit:4;"/>
    </g>
    <g transform="matrix(4.166667,0,0,4.166667,0,1154.554167)">
        <path d="M252.759,77.697C263.346,71.923 282.595,71.923 293.183,77.697" style="fill:none;fill-rule:nonzero;stroke:rgb(8,6,5);stroke-width:3px;stroke-linecap:round;stroke-miterlimit:4;"/>
    </g>
    <g transform="matrix(4.166667,0,0,4.166667,0,1210.698333)">
        <path d="M252.759,70.96C263.346,65.185 282.595,65.185 293.183,70.96" style="fill:none;fill-rule:nonzero;stroke:rgb(8,6,5);stroke-width:3px;stroke-linecap:round;stroke-miterlimit:4;"/>
    </g>
    <g transform="matrix(4.166667,0,0,4.166667,0,1266.8425)">
        <path d="M252.759,64.223C263.346,58.448 282.595,58.448 293.183,64.223" style="fill:none;fill-rule:nonzero;stroke:rgb(8,6,5);stroke-width:3px;stroke-linecap:round;stroke-miterlimit:4;"/>
    </g>
    <g transform="matrix(4.166667,0,0,4.166667,0,-1033.770833)">
        <path d="M422.439,309.497C442.651,311.422 454.201,324.897 453.238,365.321L408.964,365.321C408.964,347.996 428.214,352.808 424.364,324.897" style="fill:white;stroke:rgb(8,6,5);stroke-width:3px;stroke-linecap:round;stroke-miterlimit:4;"/>
    </g>
    <g transform="matrix(4.166667,0,0,4.166667,0,-1123.283333)">
        <path d="M426.289,346.38C427.02,351.981 415.605,360.567 410.889,363.704C405.114,367.554 405.461,372.058 401.265,371.404C399.259,369.595 403.979,365.552 401.265,365.629C399.34,365.629 401.63,367.997 399.34,369.479C397.415,369.479 391.634,371.404 391.64,361.779C391.64,357.929 403.19,338.68 403.19,338.68C403.19,338.68 406.828,335.023 407.039,331.943C405.634,330.029 406.077,328.093 406.077,326.168C408.002,324.243 411.852,330.98 411.852,330.98L415.702,330.98C415.702,330.98 417.203,327.146 420.514,325.205C422.439,325.205 422.439,330.98 422.439,330.98" style="fill:white;stroke:rgb(8,6,5);stroke-width:3px;stroke-linecap:round;stroke-miterlimit:4;"/>
    </g>
    <g transform="matrix(0,-4.166667,-4.166667,0,3053.745833,2036.0125)">
        <circle cx="397.414" cy="335.485" r="0.963" style="fill:rgb(8,6,5);stroke:rgb(8,6,5);stroke-width:3px;stroke-linecap:round;stroke-miterlimit:4;"/>
    </g>
    <g transform="matrix(2.084238,-3.607917,-3.607917,-2.084238,2129.484247,2511.300812)">
        <ellipse cx="408.002" cy="354.734" rx="2.887" ry="0.963" style="fill:rgb(8,6,5);stroke:rgb(8,6,5);stroke-width:3px;stroke-linecap:round;stroke-miterlimit:4;"/>
    </g>
    <g transform="matrix(4.166667,0,0,4.166667,0,-825.232625)">
        <rect x="90.067" y="309.497" width="51.974" height="5.775" style="fill:white;stroke:rgb(8,6,5);stroke-width:3px;stroke-linecap:butt;stroke-miterlimit:4;"/>
    </g>
    <g transform="matrix(4.166667,0,0,4.166667,0,-881.37825)">
        <rect x="95.842" y="315.272" width="40.424" height="7.7" style="fill:white;stroke:rgb(8,6,5);stroke-width:3px;stroke-linecap:butt;stroke-miterlimit:4;"/>
    </g>
    <g transform="matrix(4.166667,0,0,4.166667,0,-1242.308333)">
        <path d="M93.917,367.246L93.917,357.621L101.617,357.621L101.617,361.471L111.241,361.471L111.241,357.621L120.866,357.621L120.866,361.471L130.491,361.471L130.491,357.621L138.191,357.621L138.191,367.246" style="fill:white;stroke:rgb(8,6,5);stroke-width:3px;stroke-linecap:butt;stroke-miterlimit:4;"/>
    </g>
    <g transform="matrix(4.166667,0,0,4.166667,0,-1178.141667)">
        <path d="M138.191,351.846L132.416,357.621L99.692,357.621L93.917,351.846" style="fill:white;stroke:rgb(8,6,5);stroke-width:3px;stroke-linecap:round;stroke-miterlimit:4;"/>
    </g>
    <g transform="matrix(4.166667,0,0,4.166667,0,-1053.820833)">
        <path d="M132.416,327.784L132.416,351.846L99.692,351.846L99.692,327.784" style="fill:white;stroke:rgb(8,6,5);stroke-width:3px;stroke-linecap:butt;stroke-linejoin:miter;stroke-miterlimit:4;"/>
    </g>
    <g transform="matrix(4.166667,0,0,4.166667,0,-933.5125)">
        <path d="M132.416,322.972L135.303,327.784L96.804,327.784L99.692,322.972" style="fill:white;stroke:rgb(8,6,5);stroke-width:3px;stroke-linecap:round;stroke-miterlimit:4;"/>
    </g>
    <g transform="matrix(4.166667,0,0,4.166667,0,-1202.204167)">
        <path d="M93.917,357.621L138.191,357.621" style="fill:none;fill-rule:nonzero;stroke:rgb(8,6,5);stroke-width:3px;stroke-linecap:round;stroke-linejoin:miter;stroke-miterlimit:4;"/>
    </g>
    <g transform="matrix(-4.166667,0,0,4.166667,700.539167,886.666667)">
        <circle cx="84.065" cy="106.956" r="5.331"/>
    </g>
    <g transform="matrix(-4.166667,0,0,4.166667,829.7875,838.2)">
        <circle cx="99.575" cy="112.773" r="5.331"/>
    </g>
    <g transform="matrix(-4.166667,0,0,4.166667,967.1125,822.041667)">
        <circle cx="116.053" cy="114.712" r="5.331"/>
    </g>
    <g transform="matrix(-4.166667,0,0,4.166667,1104.4375,838.2)">
        <circle cx="132.532" cy="112.773" r="5.331"/>
    </g>
    <g transform="matrix(-4.166667,0,0,4.166667,1233.6875,886.666667)">
        <circle cx="148.042" cy="106.956" r="5.332"/>
    </g>
    <g transform="matrix(4.166667,0,0,4.166667,0,983.603333)">
        <path d="M89.881,110.834C106.36,107.926 130.594,107.926 142.226,110.834L147.073,86.6L132.533,108.895L131.951,81.559L121.87,107.926L116.054,79.814L110.237,107.926L100.156,81.559L99.575,108.895L85.034,86.6L89.881,110.834Z" style="stroke:rgb(8,6,5);stroke-width:2.91px;stroke-linecap:butt;stroke-miterlimit:4;"/>
    </g>
    <g transform="matrix(4.166667,0,0,4.166667,0,1209.78875)">
        <path d="M89.881,56.549C89.881,60.427 92.789,60.427 94.728,64.304C96.666,67.212 96.666,66.243 95.697,71.09C92.789,73.029 92.789,75.937 92.789,75.937C89.881,78.845 93.758,80.784 93.758,80.784C106.36,82.722 125.747,82.722 138.349,80.784C138.349,80.784 141.257,78.845 138.349,75.937C138.349,75.937 139.318,73.029 136.41,71.09C135.441,66.243 135.441,67.212 137.38,64.304C139.318,60.427 142.226,60.427 142.226,56.549C125.747,53.641 106.36,53.641 89.881,56.549Z" style="stroke:rgb(8,6,5);stroke-width:2.91px;stroke-linecap:butt;stroke-miterlimit:4;"/>
    </g>
    <g transform="matrix(4.166667,0,0,4.166667,0,1335.729167)">
        <path d="M93.758,50.558C108.195,55.58 123.913,55.58 138.349,50.558" style="stroke:rgb(8,6,5);stroke-width:2.91px;stroke-linecap:butt;stroke-miterlimit:4;"/>
    </g>
    <g transform="matrix(4.166667,0,0,4.166667,0,1140.395)">
        <path d="M93.758,79.02C108.195,73.998 123.913,73.998 138.349,79.02" style="fill:rgb(8,6,5);stroke:white;stroke-width:2.91px;stroke-linecap:round;stroke-miterlimit:4;"/>
    </g>
    <g transform="matrix(4.166667,0,0,4.166667,0,1201.710833)">
        <path d="M96.666,69.151L135.441,69.151" style="fill:none;fill-rule:nonzero;stroke:white;stroke-width:2.91px;stroke-linecap:round;stroke-miterlimit:4;"/>
    </g>
    <g transform="matrix(4.166667,0,0,4.166667,0,1269.277917)">
        <path d="M94.728,58.751C108.573,63.335 123.534,63.335 137.38,58.751" style="fill:rgb(8,6,5);stroke:white;stroke-width:2.91px;stroke-linecap:round;stroke-miterlimit:4;"/>
    </g>
    <g transform="matrix(4.166667,0,0,4.166667,0,1321.49125)">
        <path d="M92.789,52.036C107.81,57.519 124.297,57.519 139.318,52.036" style="fill:rgb(8,6,5);stroke:white;stroke-width:2.91px;stroke-linecap:round;stroke-miterlimit:4;"/>
    </g>
    <g transform="matrix(4.166667,0,0,4.166667,0,1282.882917)">
        <path d="M405.754,58.458C412.279,56.59 425.215,59.285 431.74,54.608C438.266,59.285 451.201,56.59 457.727,58.458C457.727,58.458 460.903,59.497 463.502,62.308C462.193,64.175 460.326,64.213 457.727,63.27C451.201,61.403 438.266,64.155 431.74,61.345C425.215,64.155 412.279,61.403 405.754,63.27C403.147,64.213 401.282,64.175 399.979,62.308C402.585,58.573 405.754,58.458 405.754,58.458Z" style="stroke:rgb(8,6,5);stroke-width:2.89px;stroke-linecap:butt;stroke-miterlimit:4;"/>
    </g>
    <g transform="matrix(4.166667,0,0,4.166667,0,1058.388333)">
        <path d="M417.303,104.637C422.116,109.449 441.365,109.449 446.177,104.637C447.14,101.749 446.177,100.787 446.177,100.787C446.177,95.974 441.365,93.087 441.365,93.087C451.952,90.2 452.915,70.95 431.74,63.251C410.566,70.95 411.528,90.2 422.116,93.087C422.116,93.087 417.303,95.974 417.303,100.787C417.303,100.787 416.341,101.749 417.303,104.637Z" style="stroke:rgb(8,6,5);stroke-width:2.89px;stroke-linecap:butt;stroke-miterlimit:4;"/>
    </g>
    <g transform="matrix(0,-4.166667,-4.166667,0,2275.008333,3100.8)">
        <circle cx="431.74" cy="114.261" r="4.812" style="stroke:rgb(8,6,5);stroke-width:2.89px;stroke-linecap:butt;stroke-miterlimit:4;"/>
    </g>
    <g transform="matrix(4.166667,0,0,4.166667,0,1062.39625)">
        <path d="M422.116,92.125L441.365,92.125M417.303,99.825L446.177,99.825M431.74,71.913L431.74,81.538M426.928,76.726L436.553,76.726" style="fill:none;fill-rule:nonzero;stroke:white;stroke-width:2.89px;stroke-linecap:round;stroke-linejoin:miter;stroke-miterlimit:4;"/>
    </g>
    <g transform="matrix(4.166667,0,0,4.166667,0,-1045.8)">
        <path d="M274.009,309.497C269.755,309.497 266.309,312.942 266.309,317.197C266.309,318.91 266.868,320.488 267.811,321.778C264.057,323.934 261.497,327.957 261.497,332.596C261.497,336.504 263.306,339.988 266.136,342.279C260.361,344.319 251.872,352.962 251.872,368.208L296.146,368.208C296.146,352.962 287.657,344.319 281.882,342.279C284.712,339.988 286.521,336.504 286.521,332.596C286.521,327.957 283.961,323.934 280.207,321.778C281.151,320.488 281.709,318.91 281.709,317.197C281.709,312.942 278.263,309.497 274.009,309.497Z" style="fill-rule:nonzero;stroke:black;stroke-width:2.89px;stroke-linecap:round;stroke-linejoin:miter;stroke-miterlimit:4;"/>
    </g>
</svg>
